<?xml version="1.0" encoding="UTF-8"?>
<svg width="923px" height="613px" viewBox="0 0 923 613" version="1.1" xmlns="http://www.w3.org/2000/svg" xmlns:xlink="http://www.w3.org/1999/xlink">
    <title>decor</title>
    <defs>
        <linearGradient x1="100%" y1="50%" x2="0%" y2="50%" id="linearGradient-1">
            <stop stop-color="#FEE140" offset="0%"></stop>
            <stop stop-color="#FA709A" offset="100%"></stop>
        </linearGradient>
        <linearGradient x1="100%" y1="50%" x2="0%" y2="50%" id="linearGradient-2">
            <stop stop-color="#6A11CB" offset="0%"></stop>
            <stop stop-color="#2575FC" offset="100%"></stop>
        </linearGradient>
        <linearGradient x1="-0.830406577%" y1="52.3397424%" x2="99.8346952%" y2="47.4268676%" id="linearGradient-3">
            <stop stop-color="#5FDDC5" offset="0%"></stop>
            <stop stop-color="#68DFC8" offset="17%"></stop>
            <stop stop-color="#82E5D0" offset="46%"></stop>
            <stop stop-color="#ABEFDC" offset="82%"></stop>
            <stop stop-color="#C1F4E3" offset="99%"></stop>
        </linearGradient>
    </defs>
    <g id="Prototype" stroke="none" stroke-width="1" fill="none" fill-rule="evenodd">
        <g id="MVP-1-/-Landing-Page" transform="translate(-263.000000, -536.000000)">
            <g id="decor" transform="translate(263.000000, 536.000000)">                
                <path d="M806.274006,172.23926 C854.228651,196.206129 910.723166,225.754323 921.233773,266.136855 C931.415924,306.519386 895.614168,357.736256 864.082346,411.251318 C832.550524,464.438067 805.617093,519.923009 760.290098,545.531444 C714.634648,571.139878 650.914091,566.871806 606.24401,538.308552 C561.573929,509.745298 535.954323,456.886862 508.035523,406.326619 C480.116722,356.094689 450.227182,307.832639 445.628791,252.347697 C441.030401,196.862755 461.723159,133.498295 505.407871,109.203113 C548.764126,84.5796185 614.455422,99.0254022 667.008458,115.112752 C719.561495,130.871789 758.647816,148.600705 806.274006,172.23926 Z" id="Path" fill="url(#linearGradient-2)"></path>
                <path d="M491.795651,611.035422 C438.168693,619.918646 388.264161,597.361516 343.595042,569.821115 C225.582111,497.599782 118.712445,598.709648 54.7347391,611.131717 C-45.050309,630.559255 13.908125,446.009677 56.8481168,397.838049 C99.0196076,336.546211 212.277438,323.209339 239.607254,399.619508 C298.181438,532.482686 455.748152,327.085217 608.583783,371.140229 C663.243415,386.908554 679.18981,450.968875 655.078092,496.516462 C624.986476,559.686054 560.600504,602.6096 491.795651,611.035422 Z" id="Path" fill="url(#linearGradient-3)" fill-rule="nonzero" style="mix-blend-mode: multiply;"></path>
            </g>
        </g>
    </g>
</svg>