<?xml version="1.0" encoding="UTF-8"?>
<svg width="564px" height="499px" viewBox="0 0 564 499" version="1.1" xmlns="http://www.w3.org/2000/svg" xmlns:xlink="http://www.w3.org/1999/xlink">
    <title>decor-2</title>
    <defs>
        <linearGradient x1="100%" y1="78.856403%" x2="0%" y2="21.143597%" id="linearGradient-1">
            <stop stop-color="#F5C8F5" offset="0%"></stop>
            <stop stop-color="#DADDFA" offset="48.4115912%"></stop>
            <stop stop-color="#F1F4F9" offset="100%"></stop>
        </linearGradient>
        <linearGradient x1="-0.830406577%" y1="52.3397424%" x2="99.8346952%" y2="47.4268676%" id="linearGradient-2">
            <stop stop-color="#5FDDC5" offset="0%"></stop>
            <stop stop-color="#68DFC8" offset="17%"></stop>
            <stop stop-color="#82E5D0" offset="46%"></stop>
            <stop stop-color="#ABEFDC" offset="82%"></stop>
            <stop stop-color="#C1F4E3" offset="99%"></stop>
        </linearGradient>
    </defs>
    <g id="Prototype" stroke="none" stroke-width="1" fill="none" fill-rule="evenodd">
        <g id="MVP-1-/-Landing-Page" transform="translate(-731.000000, -2099.000000)">
            <g id="decor-2" transform="translate(731.000000, 2099.000000)">
                <g id="pink-8670798cb2f59e90ee454d5e7a017b57117da2d1eb2457f8a6e3490810b87361">
                    <g id="Group" opacity="0.9" transform="translate(28.000000, 0.000000)"></g>
                    <g id="Group" opacity="0.9" transform="translate(0.000000, 7.000000)"></g>
                    <path d="M311.983043,97.7142857 C305.666087,84.978 299.566957,72.3142857 289.65587,61.4285714 C274.978585,45.9607007 256.961526,34.0465044 236.978261,26.5942857 C203.868696,13.7854286 168,11.1365714 132.34913,8.59657143 C108.13413,7 82.1765217,5.51228571 61.3741304,17.8857143 C46.4167391,26.9571429 36.178913,41.9068571 26.8123913,56.6025714 C14.9771739,75.2171429 3.4323913,95.0291429 1.32673913,116.982 C-1.46869565,146.337143 13.6702174,175.438286 35.8158696,194.96 C57.9615217,214.481714 86.2426087,225.621429 114.81413,233.023714 C143.385652,240.426 172.901087,244.49 201.291087,251.964857 C215.449783,255.593429 229.753696,260.238 244.348043,259.222 C257.066437,258.002595 269.29945,253.719503 279.998913,246.739714 C303.937982,232.408942 321.564272,209.554491 329.336522,182.768 C333.400792,167.541875 333.513248,151.531371 329.663261,136.249714 C327.67502,128.436647 324.582222,120.946878 320.478261,114.006571 C317.501304,108.6 314.70587,103.157143 311.983043,97.7142857 Z" id="Path" fill="url(#linearGradient-1)"></path>
                </g>
                <path d="M443.41711,496.763257 C406.296948,502.912156 371.753421,487.298287 340.833805,468.235036 C259.146176,418.243993 185.171828,488.231453 140.886959,496.829912 C71.8165279,510.277502 112.627096,382.533726 142.349823,349.1897 C171.540599,306.763969 249.936785,297.53229 268.854271,350.422813 C309.398863,442.389667 418.465313,300.215142 524.256943,330.709678 C562.091913,341.624389 573.129884,385.966444 556.439941,417.494128 C535.610759,461.219626 491.043292,490.930969 443.41711,496.763257 Z" id="Path" fill="url(#linearGradient-2)" fill-rule="nonzero" style="mix-blend-mode: multiply;"></path>
            </g>
        </g>
    </g>
</svg>