<?xml version="1.0" encoding="UTF-8"?>
<svg width="923px" height="613px" viewBox="0 0 923 613" version="1.1" xmlns="http://www.w3.org/2000/svg" xmlns:xlink="http://www.w3.org/1999/xlink">
    <title>decor</title>
    <defs>
        <linearGradient x1="100%" y1="50%" x2="0%" y2="50%" id="linearGradient-1">
            <stop stop-color="#FEE140" offset="0%"></stop>
            <stop stop-color="#FA709A" offset="100%"></stop>
        </linearGradient>
        <linearGradient x1="100%" y1="50%" x2="0%" y2="50%" id="linearGradient-2">
            <stop stop-color="#6A11CB" offset="0%"></stop>
            <stop stop-color="#2575FC" offset="100%"></stop>
        </linearGradient>
        <linearGradient x1="-0.830406577%" y1="52.3397424%" x2="99.8346952%" y2="47.4268676%" id="linearGradient-3">
            <stop stop-color="#5FDDC5" offset="0%"></stop>
            <stop stop-color="#68DFC8" offset="17%"></stop>
            <stop stop-color="#82E5D0" offset="46%"></stop>
            <stop stop-color="#ABEFDC" offset="82%"></stop>
            <stop stop-color="#C1F4E3" offset="99%"></stop>
        </linearGradient>
    </defs>
    <g id="Prototype" stroke="none" stroke-width="1" fill="none" fill-rule="evenodd">
        <g id="MVP-1-/-Landing-Page" transform="translate(-263.000000, -536.000000)">
            <g id="decor" transform="translate(263.000000, 536.000000)">
                <path d="M231.353147,99.6804457 C233.226246,140.482228 249.795965,176.627807 264.972867,213.637424 C273.257727,234.710344 285.841108,254.439206 290.37977,276.880187 C287.978362,287.848666 255.727444,260.655478 251.356881,256.599301 C199.294342,209.749254 163.72948,148.330571 131.142366,87.1999005 C117.646449,65.2389412 95.6015183,11.5485958 75.4056719,0.292104037 C58.2836285,-3.16404694 57.7313045,24.9651819 58.5958116,36.2936767 C68.3695447,115.209124 107.752646,186.828253 145.935043,255.327245 C156.525255,276.352163 172.734763,296.65705 175.42434,320.538094 C173.959481,327.738408 160.823776,320.970113 156.621311,319.218036 C113.684125,296.081025 81.1210244,257.703349 53.0725718,218.605641 C32.9007395,188.724336 12.2486255,157.642978 2.64299106,122.601447 C2.19720761,120.430249 2.10798947,118.201006 2.37883611,116.001159 C2.37883611,115.425134 2.59496289,114.825107 3.29137139,114.705102 C3.98777988,114.585097 4.08383623,115.065118 4.34799117,115.449135 C4.61214612,115.833151 5.09242784,117.105207 5.83686451,117.153209 C6.94151247,115.065118 3.17130096,110.912936 1.39425859,113.577053 C-2.49602336,121.713408 2.73904741,131.481835 5.14045601,139.474184 C35.542289,209.557246 82.1776442,277.072195 146.823564,319.482048 C155.156452,324.138251 175.640467,336.594795 180.2992,322.434177 C181.187721,308.729578 173.359129,296.033023 167.715819,283.888493 C152.082649,254.247198 134.864549,225.613947 119.783703,195.612636 C96.7541944,148.522579 58.4997553,68.599088 65.3437698,16.5648149 C68.75377,1.82817114 75.2856014,5.11631478 82.8740526,15.1007509 C128.692929,85.7358366 158.998706,166.643371 215.743991,230.150145 C231.257091,248.006925 248.042937,265.143674 267.9266,278.152242 C298.520546,297.353081 301.378222,280.16833 288.818855,253.959185 C269.247375,208.765211 246.409979,163.955254 238.077091,114.969114 C236.876387,105.944719 233.586457,76.5674361 249.843993,82.3996908 C259.881881,87.0558942 268.022656,94.9522392 276.427586,101.984546 C298.952799,121.689407 321.021744,141.89829 344.579563,160.331095 C354.185197,166.883381 402.693651,208.717209 407.664567,186.588242 C405.047031,155.650891 386.388087,128.217692 381.249072,97.6163556 C379.712171,89.6000054 377.094635,67.7350502 391.16689,74.575349 C417.750483,87.2479026 542.071407,203.604986 561.138591,159.659066 C566.661831,143.170346 562.339295,123.465485 573.673944,109.040855 C590.291691,87.919932 650.086766,107.504788 676.934514,105.632706 C692.471628,106.088726 706.519868,99.3924332 719.607545,91.6400945 C743.657784,79.1811451 769.476481,70.4797553 796.164451,65.8389674 C797.101001,65.6949611 798.709945,65.2629422 797.653325,64.2788992 C782.068183,63.2708552 766.435013,67.3750345 751.522265,71.3352075 C737.014596,75.5138327 723.166959,81.7107802 710.386136,89.7440117 C680.464585,108.416827 644.371413,94.2562088 611.928383,92.6241375 C572.113028,88.0399372 559.505633,108.00881 557.992746,144.538405 C557.08021,160.811116 552.229365,166.979386 535.659646,161.507147 C501.223446,148.858594 471.998303,125.505574 442.821189,103.736623 L415.253018,82.3996908 C405.647384,76.1354172 386.988439,57.2945941 377.262734,71.1912012 C369.866395,84.0557632 375.389635,99.7764499 378.871678,113.073031 C380.504635,124.425527 408.865271,183.900125 400.196186,186.876255 C387.973016,185.724204 377.8871,176.411798 367.77717,170.075521 C340.44914,150.730676 315.498504,128.289696 290.547869,106.112727 C271.792868,90.3200368 234.186809,49.9262723 231.353147,99.6804457 Z" id="Path" fill="url(#linearGradient-1)"></path>
                <path d="M806.274006,172.23926 C854.228651,196.206129 910.723166,225.754323 921.233773,266.136855 C931.415924,306.519386 895.614168,357.736256 864.082346,411.251318 C832.550524,464.438067 805.617093,519.923009 760.290098,545.531444 C714.634648,571.139878 650.914091,566.871806 606.24401,538.308552 C561.573929,509.745298 535.954323,456.886862 508.035523,406.326619 C480.116722,356.094689 450.227182,307.832639 445.628791,252.347697 C441.030401,196.862755 461.723159,133.498295 505.407871,109.203113 C548.764126,84.5796185 614.455422,99.0254022 667.008458,115.112752 C719.561495,130.871789 758.647816,148.600705 806.274006,172.23926 Z" id="Path" fill="url(#linearGradient-2)"></path>
                <path d="M491.795651,611.035422 C438.168693,619.918646 388.264161,597.361516 343.595042,569.821115 C225.582111,497.599782 118.712445,598.709648 54.7347391,611.131717 C-45.050309,630.559255 13.908125,446.009677 56.8481168,397.838049 C99.0196076,336.546211 212.277438,323.209339 239.607254,399.619508 C298.181438,532.482686 455.748152,327.085217 608.583783,371.140229 C663.243415,386.908554 679.18981,450.968875 655.078092,496.516462 C624.986476,559.686054 560.600504,602.6096 491.795651,611.035422 Z" id="Path" fill="url(#linearGradient-3)" fill-rule="nonzero" style="mix-blend-mode: multiply;"></path>
            </g>
        </g>
    </g>
</svg>