<?xml version="1.0" encoding="UTF-8"?>
<svg width="64px" height="64px" viewBox="0 0 64 64" version="1.1" xmlns="http://www.w3.org/2000/svg" xmlns:xlink="http://www.w3.org/1999/xlink">
    <title>icon-vip</title>
    <defs>
        <path d="M10.8,21.6 C4.8353247,21.6 -1.59872116e-15,16.7646753 -1.59872116e-15,10.8 C-1.59872116e-15,4.8353247 4.8353247,0 10.8,0 C16.7646753,0 21.6,4.8353247 21.6,10.8 C21.6,16.7646753 16.7646753,21.6 10.8,21.6 Z M10.8,16.2 C13.7823376,16.2 16.2,13.7823376 16.2,10.8 C16.2,7.81766235 13.7823376,5.4 10.8,5.4 C7.81766235,5.4 5.4,7.81766235 5.4,10.8 C5.4,13.7823376 7.81766235,16.2 10.8,16.2 Z" id="path-1"></path>
        <filter x="-16.2%" y="-11.6%" width="132.4%" height="132.4%" filterUnits="objectBoundingBox" id="filter-2">
            <feOffset dx="0" dy="1" in="SourceAlpha" result="shadowOffsetOuter1"></feOffset>
            <feGaussianBlur stdDeviation="1" in="shadowOffsetOuter1" result="shadowBlurOuter1"></feGaussianBlur>
            <feColorMatrix values="0 0 0 0 0.0515635971   0 0 0 0 0.122921284   0 0 0 0 0.465438179  0 0 0 0.1 0" type="matrix" in="shadowBlurOuter1"></feColorMatrix>
        </filter>
    </defs>
    <g id="Prototype" stroke="none" stroke-width="1" fill="none" fill-rule="evenodd">
        <g id="MVP-1-/-Landing-Page" transform="translate(-335.000000, -1391.000000)">
            <g id="icon-vip" transform="translate(335.000000, 1391.000000)">
                <circle id="Oval" fill="#EDF2FF" cx="32" cy="32" r="32"></circle>
                <g id="badge" transform="translate(21.000000, 14.000000)">
                    <g id="Shape" fill-rule="nonzero">
                        <use fill="black" fill-opacity="1" filter="url(#filter-2)" xlink:href="#path-1"></use>
                        <use fill="#EB482D" xlink:href="#path-1"></use>
                    </g>
                    <path d="M18,21.15 L18,36 L10.8,28.8 L3.6,36 L3.6,21.15 C7.92218266,24.1788765 13.6778173,24.1788765 18,21.15 Z" id="Path" fill-opacity="0.5" fill="#EB482D"></path>
                </g>
            </g>
        </g>
    </g>
</svg>