<?xml version="1.0" encoding="UTF-8"?>
<svg width="64px" height="64px" viewBox="0 0 64 64" version="1.1" xmlns="http://www.w3.org/2000/svg" xmlns:xlink="http://www.w3.org/1999/xlink">
    <title>icon-expert</title>
    <defs>
        <path d="M3.2,25.6 L28.8,25.6 L28.8,28.8 L3.2,28.8 L3.2,25.6 Z M3.2,12.8 L9.6,12.8 L9.6,25.6 L3.2,25.6 L3.2,12.8 Z M12.8,12.8 L19.2,12.8 L19.2,25.6 L12.8,25.6 L12.8,12.8 Z M0,12.8 L0,9.6 L16,-1.13686838e-13 L32,9.6 L32,12.8 L28.8,12.8 L28.8,25.6 L22.4,25.6 L22.4,12.8 L0,12.8 Z" id="path-1"></path>
        <filter x="-10.9%" y="-8.7%" width="121.9%" height="124.3%" filterUnits="objectBoundingBox" id="filter-2">
            <feOffset dx="0" dy="1" in="SourceAlpha" result="shadowOffsetOuter1"></feOffset>
            <feGaussianBlur stdDeviation="1" in="shadowOffsetOuter1" result="shadowBlurOuter1"></feGaussianBlur>
            <feColorMatrix values="0 0 0 0 0.0515635971   0 0 0 0 0.122921284   0 0 0 0 0.465438179  0 0 0 0.1 0" type="matrix" in="shadowBlurOuter1"></feColorMatrix>
        </filter>
    </defs>
    <g id="Prototype" stroke="none" stroke-width="1" fill="none" fill-rule="evenodd">
        <g id="MVP-1-/-Landing-Page" transform="translate(-497.000000, -1391.000000)">
            <g id="icon-expert" transform="translate(497.000000, 1391.000000)">
                <circle id="Oval" fill="#EDF2FF" cx="32" cy="32" r="32"></circle>
                <g id="library" transform="translate(16.000000, 16.000000)">
                    <g id="Shape" fill-rule="nonzero">
                        <use fill="black" fill-opacity="1" filter="url(#filter-2)" xlink:href="#path-1"></use>
                        <use fill="#EB482D" xlink:href="#path-1"></use>
                    </g>
                    <polygon id="Path" fill-opacity="0.5" fill="#EB482D" points="0 28.8 32 28.8 32 32 0 32"></polygon>
                </g>
            </g>
        </g>
    </g>
</svg>