<svg width="90" height="75" viewBox="0 0 90 75" fill="none" xmlns="http://www.w3.org/2000/svg">
<path d="M48 11H16C7.16344 11 0 18.1634 0 27V59C0 67.8366 7.16344 75 16 75H48C56.8366 75 64 67.8366 64 59V27C64 18.1634 56.8366 11 48 11Z" fill="#FD365F"/>
<path d="M33.7001 24.4321C42.9824 25.1096 50.3993 32.5413 51.1262 41.7805L48.5217 41.7808C47.6933 41.7808 47.0217 42.4524 47.0217 43.2808V43.4413C47.0217 44.2698 47.6933 44.9413 48.5217 44.9413L51.1115 44.942C50.3043 54.0989 42.923 61.4401 33.7001 62.1133V59.7583C33.7001 58.9732 33.0578 58.3309 32.2728 58.3309C31.4877 58.3309 30.8454 58.9732 30.8454 59.7583V62.1133C21.5679 61.3997 14.1458 53.9776 13.4321 44.7H15.7872C16.5722 44.7 17.2145 44.0577 17.2145 43.2727C17.2145 42.4877 16.5722 41.8454 15.7872 41.8454H13.4321C14.1458 32.5678 21.5679 25.1458 30.8454 24.4321V26.7872C30.8454 27.5722 31.4877 28.2145 32.2728 28.2145C33.0578 28.2145 33.7001 27.5722 33.7001 26.7872V24.4321ZM40.6226 34.9229L33.2719 39.1335C32.915 39.0621 32.5582 38.9908 32.2014 38.9908C29.8463 38.9908 27.9194 40.9176 27.9194 43.2727C27.9194 43.6296 27.9908 43.9864 28.0622 44.3432L23.8516 51.6939L31.2023 47.4833C31.5591 47.5547 31.9159 47.626 32.2728 47.626C34.6278 47.626 36.5547 45.6992 36.5547 43.3441C36.5547 42.9873 36.4833 42.6304 36.412 42.2736L40.6226 34.9229Z" fill="white"/>
<g filter="url(#filter0_dd)">
<rect x="29.5122" y="1.2066" width="55" height="27" rx="13.5" transform="rotate(3 29.5122 1.2066)" fill="white"/>
<g filter="url(#filter1_d)">
<path d="M37.7138 20.6625L38.3 9.47785L42.2945 9.6872C43.4556 9.74804 44.3204 10.0604 44.889 10.6243C45.4576 11.1881 45.7198 11.8908 45.6757 12.7323C45.6417 13.3821 45.4436 13.9005 45.0815 14.2874C44.7195 14.6743 44.31 14.9466 43.8531 15.1042L43.8472 15.216C44.3698 15.4357 44.8114 15.7739 45.172 16.2308C45.5331 16.6769 45.6953 17.2515 45.6584 17.9546C45.6283 18.5298 45.4568 19.0495 45.1441 19.5138C44.8426 19.968 44.4129 20.3193 43.8552 20.5678C43.2974 20.8163 42.6244 20.9199 41.8361 20.8785L37.7138 20.6625ZM39.7491 14.2322L41.8422 14.3419C42.492 14.376 42.994 14.2741 43.3483 14.0363C43.7031 13.7879 43.8945 13.3974 43.9224 12.8647C43.9777 11.8102 43.3289 11.2475 41.9761 11.1766L39.9149 11.0686L39.7491 14.2322ZM39.4895 19.1854L41.6945 19.301C42.3869 19.3373 42.9273 19.216 43.3158 18.9373C43.7042 18.6586 43.9135 18.2316 43.9437 17.6564C43.9732 17.0919 43.7988 16.6501 43.4203 16.3312C43.0424 16.0017 42.5179 15.8193 41.8468 15.7841L39.6738 15.6702L39.4895 19.1854ZM47.6779 21.1847L48.264 10L55.4062 10.3744L55.3267 11.8923L49.8782 11.6067L49.7073 14.8663L54.6765 15.1267L54.5978 16.6286L49.6286 16.3682L49.4511 19.7555L54.8996 20.0411L54.8201 21.559L47.6779 21.1847ZM59.9268 21.8266L60.4334 12.1599L57.4295 12.0025L57.5091 10.4846L65.2105 10.8882L65.131 12.4061L62.1271 12.2487L61.6205 21.9154L59.9268 21.8266ZM66.0082 22.1454L69.9338 11.1357L71.947 11.2412L74.7003 22.6009L72.8628 22.5046L72.2525 19.7809L68.7373 19.5967L67.8457 22.2416L66.0082 22.1454ZM70.7669 13.5827L69.192 18.2587L71.9402 18.4027L70.8627 13.5877L70.7669 13.5827Z" fill="#FD365F"/>
</g>
<rect x="29.9854" y="1.73209" width="54" height="26" rx="13" transform="rotate(3 29.9854 1.73209)" stroke="#E4E4E7"/>
</g>
<defs>
<filter id="filter0_dd" x="23.0991" y="0.206604" width="66.3377" height="39.8415" filterUnits="userSpaceOnUse" color-interpolation-filters="sRGB">
<feFlood flood-opacity="0" result="BackgroundImageFix"/>
<feColorMatrix in="SourceAlpha" type="matrix" values="0 0 0 0 0 0 0 0 0 0 0 0 0 0 0 0 0 0 127 0"/>
<feMorphology radius="1" operator="erode" in="SourceAlpha" result="effect1_dropShadow"/>
<feOffset dy="4"/>
<feGaussianBlur stdDeviation="3"/>
<feColorMatrix type="matrix" values="0 0 0 0 0 0 0 0 0 0 0 0 0 0 0 0 0 0 0.1 0"/>
<feBlend mode="normal" in2="BackgroundImageFix" result="effect1_dropShadow"/>
<feColorMatrix in="SourceAlpha" type="matrix" values="0 0 0 0 0 0 0 0 0 0 0 0 0 0 0 0 0 0 127 0"/>
<feMorphology radius="1" operator="erode" in="SourceAlpha" result="effect2_dropShadow"/>
<feOffset dy="2"/>
<feGaussianBlur stdDeviation="2"/>
<feColorMatrix type="matrix" values="0 0 0 0 0 0 0 0 0 0 0 0 0 0 0 0 0 0 0.06 0"/>
<feBlend mode="normal" in2="effect1_dropShadow" result="effect2_dropShadow"/>
<feBlend mode="normal" in="SourceGraphic" in2="effect2_dropShadow" result="shape"/>
</filter>
<filter id="filter1_d" x="22.7139" y="4.47784" width="66.9865" height="43.123" filterUnits="userSpaceOnUse" color-interpolation-filters="sRGB">
<feFlood flood-opacity="0" result="BackgroundImageFix"/>
<feColorMatrix in="SourceAlpha" type="matrix" values="0 0 0 0 0 0 0 0 0 0 0 0 0 0 0 0 0 0 127 0"/>
<feOffset dy="10"/>
<feGaussianBlur stdDeviation="7.5"/>
<feColorMatrix type="matrix" values="0 0 0 0 0 0 0 0 0 0 0 0 0 0 0 0 0 0 0.1 0"/>
<feBlend mode="normal" in2="BackgroundImageFix" result="effect1_dropShadow"/>
<feBlend mode="normal" in="SourceGraphic" in2="effect1_dropShadow" result="shape"/>
</filter>
</defs>
</svg>
