<?xml version="1.0" encoding="UTF-8"?>
<svg width="64px" height="64px" viewBox="0 0 64 64" version="1.1" xmlns="http://www.w3.org/2000/svg" xmlns:xlink="http://www.w3.org/1999/xlink">    
    <g id="Master" stroke="none" stroke-width="1" fill="none" fill-rule="evenodd">
        <g id="Fold" transform="translate(-144.000000, -32.000000)">
            <g id="Icon" transform="translate(144.000000, 32.000000)">
                <rect id="Rectangle" fill="#FFFFFF" x="0" y="0" width="64" height="64" rx="16"></rect>
                <g id="Group" transform="translate(13.432099, 13.432099)" fill="#EB482D" fill-rule="nonzero">
                    <path d="M20.2679411,-3.74277655e-15 C29.5502701,0.677542266 36.9671669,8.10923592 37.6941161,17.3484261 L35.0895925,17.3487322 C34.2611653,17.3487322 33.5895925,18.0203051 33.5895925,18.8487322 L33.5895925,19.0092261 C33.5895925,19.8376532 34.2611653,20.5092261 35.0895925,20.5092261 L37.6793456,20.5098976 C36.8722014,29.6668086 29.4908927,37.0080344 20.2679411,37.6812425 L20.2679411,35.3261649 C20.2679411,34.541139 19.6256472,33.8988451 18.8406213,33.8988451 C18.0555954,33.8988451 17.4133015,34.541139 17.4133015,35.3261649 L17.4133015,37.6812425 C8.13572282,36.9675826 0.713659896,29.5455197 -3.74277655e-15,20.2679411 L2.35507766,20.2679411 C3.14010354,20.2679411 3.78239745,19.6256472 3.78239745,18.8406213 C3.78239745,18.0555954 3.14010354,17.4133015 2.35507766,17.4133015 L-3.74277655e-15,17.4133015 C0.713659896,8.13572282 8.13572282,0.713659896 17.4133015,-3.74277655e-15 L17.4133015,2.35507766 C17.4133015,3.14010354 18.0555954,3.78239745 18.8406213,3.78239745 C19.6256472,3.78239745 20.2679411,3.14010354 20.2679411,2.35507766 L20.2679411,-3.74277655e-15 Z M27.1904421,10.4908005 L19.8397451,14.7013939 C19.4829152,14.6300279 19.1260852,14.5586619 18.7692553,14.5586619 C16.4141776,14.5586619 14.4872959,16.4855436 14.4872959,18.8406213 C14.4872959,19.1974512 14.5586619,19.5542812 14.6300279,19.9111111 L10.4194345,27.261808 L17.7701314,23.0512147 C18.1269614,23.1225806 18.4837913,23.1939466 18.8406213,23.1939466 C21.1956989,23.1939466 23.1225806,21.2670649 23.1225806,18.9119873 C23.1225806,18.5551573 23.0512147,18.1983274 22.9798487,17.8414974 L27.1904421,10.4908005 Z" id="Shape"></path>
                </g>
            </g>
        </g>
    </g>
</svg>