<svg width="24" height="25" viewBox="0 0 24 25" fill="none" xmlns="http://www.w3.org/2000/svg">
<path d="M22.42 11.84L20.56 9.72L20.82 6.91C20.87 6.41 20.53 5.95 20.05 5.84L17.29 5.21L15.85 2.78C15.59 2.35 15.06 2.17 14.6 2.37L12 3.5L9.41002 2.39C8.95002 2.19 8.41002 2.37 8.16002 2.8L6.71002 5.22L3.96002 5.84C3.47002 5.95 3.13002 6.4 3.18002 6.91L3.44002 9.71L1.58002 11.84C1.25002 12.22 1.25002 12.78 1.58002 13.16L3.44002 15.28L3.18002 18.1C3.13002 18.6 3.47002 19.06 3.95002 19.17L6.71002 19.8L8.15002 22.22C8.41002 22.65 8.94002 22.83 9.41002 22.63L12 21.5L14.59 22.61C15.05 22.81 15.59 22.63 15.84 22.2L17.28 19.77L20.04 19.14C20.53 19.03 20.86 18.57 20.81 18.07L20.55 15.26L22.41 13.14C22.75 12.78 22.75 12.22 22.42 11.84V11.84ZM13 17.5H11V15.5H13V17.5ZM12 13.5C11.45 13.5 11 13.05 11 12.5V8.5C11 7.95 11.45 7.5 12 7.5C12.55 7.5 13 7.95 13 8.5V12.5C13 13.05 12.55 13.5 12 13.5Z" fill="#FD365F"/>
</svg>
